<?xml version="1.0" encoding="UTF-8" standalone="no"?>
<svg
   viewBox="0 0 100 118"
   version="1.1"
   id="svg1"
   sodipodi:docname="flame.svg"
   xml:space="preserve"
   inkscape:version="1.4.4 (dcaf3e7d9e, 2026-05-05)"
   xmlns:inkscape="http://www.inkscape.org/namespaces/inkscape"
   xmlns:sodipodi="http://sodipodi.sourceforge.net/DTD/sodipodi-0.dtd"
   xmlns="http://www.w3.org/2000/svg"
   xmlns:svg="http://www.w3.org/2000/svg"><defs
     id="defs1" /><sodipodi:namedview
     id="namedview1"
     pagecolor="#ffffff"
     bordercolor="#111111"
     borderopacity="1"
     inkscape:showpageshadow="0"
     inkscape:pageopacity="0"
     inkscape:pagecheckerboard="1"
     inkscape:deskcolor="#d1d1d1"
     inkscape:zoom="6.9661017"
     inkscape:cx="41.989051"
     inkscape:cy="59.430657"
     inkscape:window-width="1920"
     inkscape:window-height="1011"
     inkscape:window-x="0"
     inkscape:window-y="0"
     inkscape:window-maximized="1"
     inkscape:current-layer="svg1" /><path
     fill="#ffffff"
     d="m 34.895164,26.32215 c 0.145943,6.607 0.134779,11.069728 2.319706,11.66981 2.184926,0.600082 6.466213,-0.411573 5.79841,-4.862181 C 40.554085,16.740368 50.265491,12.096792 59.08503,6.5809532 60.320039,6.6514389 51.399745,32.146378 60.249099,33.346894 65.230215,34.022639 67.339741,27.135797 64.894523,19 c 13.375572,11.699022 10.667297,18.948391 8.576888,26.805961 -0.640269,2.406684 0.133295,6.953977 2.623346,6.995479 3.998085,0.06664 3.142532,-6.720531 4.584075,-11.085504 6.430647,7.896568 7.5944,18.450593 4.652368,27.909933 C 83.522103,75.442553 77.699446,81.839915 73.912409,85.287105 70.572993,87.927003 53.860097,91.964716 48.564477,113.42092 46.981774,96.73451 31.140863,90.223079 25.633329,86.144577 21.721974,83.248096 17.183809,81.40065 13.648667,73.098752 10.113525,64.796853 10.856202,55.030586 20.758516,44.526764 c -1.850973,8.01095 -1.455695,11.710632 1.971037,9.481154 3.426732,-2.229478 0.699198,-5.926805 2.827867,-11.735643 2.12867,-5.808838 8.36739,-13.610554 9.337744,-15.950125 z"
     id="path1"
     style="opacity:1"
     sodipodi:nodetypes="czscacsacsccszczzc" /><path
     sodipodi:type="star"
     style="opacity:1;fill:#ffffff;fill-opacity:1;fill-rule:evenodd;stroke:#ffffff;stroke-width:0;stroke-linecap:round;stroke-linejoin:round;stroke-dasharray:none;stroke-opacity:1;paint-order:markers fill stroke"
     id="path2"
     inkscape:flatsided="false"
     sodipodi:sides="4"
     sodipodi:cx="19.895334"
     sodipodi:cy="22.331499"
     sodipodi:r1="71.517296"
     sodipodi:r2="35.758648"
     sodipodi:arg1="0.039751775"
     sodipodi:arg2="0.82514994"
     inkscape:rounded="0"
     inkscape:randomized="0"
     d="M 91.356132,25.17369 44.155675,48.601573 17.053143,93.792296 -6.3747392,46.59184 -51.565463,19.489308 -4.3650067,-3.9385743 22.737525,-49.129298 46.165408,-1.9288419 Z"
     transform="matrix(0.02211596,0,0,0.02211596,20.613204,39.261934)" /></svg>
